<svg width="20" height="20" viewBox="0 0 20 20" fill="none" xmlns="http://www.w3.org/2000/svg">
<path d="M9.99996 5.83333C7.69996 5.83333 5.83329 7.7 5.83329 10C5.83329 12.3 7.69996 14.1667 9.99996 14.1667C12.3 14.1667 14.1666 12.3 14.1666 10C14.1666 7.7 12.3 5.83333 9.99996 5.83333ZM9.99996 1.66667C5.39996 1.66667 1.66663 5.4 1.66663 10C1.66663 14.6 5.39996 18.3333 9.99996 18.3333C14.6 18.3333 18.3333 14.6 18.3333 10C18.3333 5.4 14.6 1.66667 9.99996 1.66667ZM9.99996 16.6667C6.31663 16.6667 3.33329 13.6833 3.33329 10C3.33329 6.31667 6.31663 3.33333 9.99996 3.33333C13.6833 3.33333 16.6666 6.31667 16.6666 10C16.6666 13.6833 13.6833 16.6667 9.99996 16.6667Z" fill="#9C27B0"/>
</svg>
