<svg width="22" height="22" viewBox="0 0 22 22" fill="none" xmlns="http://www.w3.org/2000/svg">
<path d="M10.0834 13.75H11.9167V15.5833H10.0834V13.75ZM10.0834 6.41668H11.9167V11.9167H10.0834V6.41668ZM10.9909 1.83334C5.93087 1.83334 1.83337 5.94001 1.83337 11C1.83337 16.06 5.93087 20.1667 10.9909 20.1667C16.06 20.1667 20.1667 16.06 20.1667 11C20.1667 5.94001 16.06 1.83334 10.9909 1.83334ZM11 18.3333C6.94837 18.3333 3.66671 15.0517 3.66671 11C3.66671 6.94834 6.94837 3.66668 11 3.66668C15.0517 3.66668 18.3334 6.94834 18.3334 11C18.3334 15.0517 15.0517 18.3333 11 18.3333Z" fill="white"/>
</svg>
